<?xml version="1.0" encoding="UTF-8" standalone="no"?>
<!-- Created with Inkscape (http://www.inkscape.org/) -->

<svg
   xmlns:dc="http://purl.org/dc/elements/1.1/"
   xmlns:cc="http://creativecommons.org/ns#"
   xmlns:rdf="http://www.w3.org/1999/02/22-rdf-syntax-ns#"
   xmlns:svg="http://www.w3.org/2000/svg"
   xmlns="http://www.w3.org/2000/svg"
   xmlns:sodipodi="http://sodipodi.sourceforge.net/DTD/sodipodi-0.dtd"
   xmlns:inkscape="http://www.inkscape.org/namespaces/inkscape"
   id="svg2"
   version="1.1"
   inkscape:version="0.48.5 r10040"
   width="200"
   height="45"
   xml:space="preserve"
   sodipodi:docname="kodolamacz_logo3.svg"><metadata
     id="metadata8"><rdf:RDF><cc:Work
         rdf:about=""><dc:format>image/svg+xml</dc:format><dc:type
           rdf:resource="http://purl.org/dc/dcmitype/StillImage" /><dc:title></dc:title></cc:Work></rdf:RDF></metadata><defs
     id="defs6"><clipPath
       clipPathUnits="userSpaceOnUse"
       id="clipPath24"><path
         d="m 0,819 841.89,0 0,-819 L 0,0 0,819 z"
         id="path26"
         inkscape:connector-curvature="0" /></clipPath></defs><sodipodi:namedview
     pagecolor="#ffffff"
     bordercolor="#666666"
     borderopacity="1"
     objecttolerance="10"
     gridtolerance="10"
     guidetolerance="10"
     inkscape:pageopacity="0"
     inkscape:pageshadow="2"
     inkscape:window-width="1678"
     inkscape:window-height="977"
     id="namedview4"
     showgrid="false"
     fit-margin-top="0"
     fit-margin-left="0"
     fit-margin-right="0"
     fit-margin-bottom="0"
     inkscape:zoom="1.16"
     inkscape:cx="211.7527"
     inkscape:cy="-94.986126"
     inkscape:window-x="0"
     inkscape:window-y="0"
     inkscape:window-maximized="0"
     inkscape:current-layer="g22" /><g
     id="g10"
     inkscape:groupmode="layer"
     inkscape:label="kodolamacz_logo"
     transform="matrix(1.25,0,0,-1.25,-319.14236,966.61858)"><path
       d="m 0,0 420.945,0 0,273 L 0,273 0,0 z"
       style="fill:#f6f6f6;fill-opacity:1;fill-rule:nonzero;stroke:none"
       id="path16"
       inkscape:connector-curvature="0" /><path
       d="m 420.945,0 420.944,0 0,273 -420.944,0 0,-273 z"
       style="fill:#231f20;fill-opacity:1;fill-rule:nonzero;stroke:none"
       id="path18"
       inkscape:connector-curvature="0" /><g
       id="g20"
       transform="translate(18.62069,88.275862)"><g
         id="g22"
         clip-path="url(#clipPath24)"><g
           id="g28"
           transform="translate(314.4082,390.8748)"><path
             d="m 0,0 c 0,-5.292 -4.29,-9.581 -9.581,-9.581 l -58.553,0 c -5.292,0 -9.581,4.289 -9.581,9.581 l 0,42.583 c 0,5.292 4.289,9.581 9.581,9.581 l 58.553,0 C -4.29,52.164 0,47.875 0,42.583 L 0,0 z"
             style="fill:#4cb4df;fill-opacity:1;fill-rule:nonzero;stroke:none"
             id="path30"
             inkscape:connector-curvature="0" /></g><g
           id="g32"
           transform="translate(299.7425,409.5016)"><path
             d="m 0,0 c 0.331,0.743 0.518,1.564 0.518,2.429 l 0,4.048 c 0,1.996 1.624,3.619 3.619,3.619 l 1.745,0 0,4.664 -1.745,0 c -4.575,0 -8.283,-3.708 -8.283,-8.283 l 0,-4.572 C -4.146,0.853 -4.999,0 -6.051,0 l -1.705,0 0,-4.664 1.705,0 c 1.052,0 1.905,-0.853 1.905,-1.905 l 0,-4.573 c 0,-4.574 3.708,-8.283 8.283,-8.283 l 1.745,0 0,4.665 -1.745,0 c -1.995,0 -3.619,1.623 -3.619,3.618 l 0,4.048 c 0,0.866 -0.187,1.687 -0.518,2.43 -0.413,0.929 -1.062,1.725 -1.862,2.332 0.8,0.607 1.449,1.403 1.862,2.332"
             style="fill:#ffffff;fill-opacity:1;fill-rule:nonzero;stroke:none"
             id="path34"
             inkscape:connector-curvature="0" /></g><path
           d="m 287.322,390.077 -4.664,0 0,43.207 4.664,0 0,-43.207 z"
           style="fill:#ffffff;fill-opacity:1;fill-rule:nonzero;stroke:none"
           id="path36"
           inkscape:connector-curvature="0" /><g
           id="g38"
           transform="translate(327.7235,407.021)"><path
             d="m 0,0 c 0,-1.02 0.154,-1.944 0.46,-2.774 0.305,-0.83 0.727,-1.552 1.267,-2.164 0.538,-0.612 1.172,-1.085 1.9,-1.419 0.728,-0.336 1.514,-0.503 2.36,-0.503 0.845,0 1.631,0.167 2.359,0.503 0.728,0.334 1.362,0.807 1.902,1.419 0.538,0.612 0.961,1.34 1.267,2.185 0.306,0.845 0.458,1.777 0.458,2.797 0,0.99 -0.152,1.907 -0.458,2.753 C 11.209,3.642 10.786,4.37 10.248,4.981 9.708,5.593 9.074,6.066 8.346,6.402 7.618,6.737 6.832,6.904 5.987,6.904 5.141,6.904 4.355,6.729 3.627,6.38 2.899,6.03 2.265,5.55 1.727,4.938 1.187,4.326 0.765,3.598 0.46,2.753 0.154,1.908 0,0.99 0,0 m 5.987,-11.842 c -1.864,0 -3.54,0.321 -5.026,0.961 -1.485,0.641 -2.745,1.509 -3.779,2.601 -1.035,1.093 -1.829,2.352 -2.382,3.779 -0.553,1.427 -0.83,2.928 -0.83,4.501 0,1.602 0.277,3.118 0.83,4.544 0.553,1.427 1.347,2.689 2.382,3.781 1.034,1.092 2.294,1.959 3.779,2.599 1.486,0.641 3.162,0.962 5.026,0.962 1.863,0 3.531,-0.321 5.004,-0.962 1.47,-0.64 2.722,-1.507 3.758,-2.599 1.033,-1.092 1.827,-2.354 2.38,-3.781 C 17.682,3.118 17.96,1.602 17.96,0 c 0,-1.573 -0.278,-3.074 -0.831,-4.501 -0.553,-1.427 -1.339,-2.686 -2.359,-3.779 -1.02,-1.092 -2.273,-1.96 -3.758,-2.601 -1.486,-0.64 -3.162,-0.961 -5.025,-0.961"
             style="fill:#2e2d2d;fill-opacity:1;fill-rule:nonzero;stroke:none"
             id="path40"
             inkscape:connector-curvature="0" /></g><g
           id="g42"
           transform="translate(360.6274,400.1606)"><path
             d="m 0,0 c 0.553,0 1.121,0.095 1.704,0.285 0.583,0.188 1.121,0.458 1.617,0.807 0.496,0.35 0.94,0.758 1.334,1.224 0.393,0.466 0.691,0.976 0.895,1.529 l 0,5.462 c -0.234,0.641 -0.561,1.232 -0.983,1.771 -0.423,0.538 -0.904,1.005 -1.442,1.398 -0.539,0.394 -1.107,0.705 -1.704,0.939 -0.598,0.234 -1.187,0.35 -1.771,0.35 -0.874,0 -1.681,-0.19 -2.424,-0.568 C -3.517,12.818 -4.151,12.301 -4.676,11.646 -5.2,10.991 -5.608,10.24 -5.899,9.395 -6.19,8.55 -6.336,7.676 -6.336,6.773 c 0,-0.961 0.16,-1.85 0.481,-2.665 0.321,-0.816 0.758,-1.53 1.311,-2.142 C -3.991,1.355 -3.328,0.874 -2.556,0.524 -1.784,0.175 -0.933,0 0,0 m -1.529,-4.981 c -1.573,0 -3.031,0.305 -4.37,0.917 -1.34,0.612 -2.491,1.457 -3.452,2.535 -0.962,1.077 -1.712,2.338 -2.25,3.78 -0.539,1.442 -0.809,2.993 -0.809,4.653 0,1.661 0.255,3.205 0.765,4.632 0.51,1.427 1.216,2.681 2.119,3.758 0.903,1.077 1.981,1.923 3.234,2.534 1.252,0.612 2.621,0.918 4.107,0.918 1.689,0 3.213,-0.408 4.567,-1.223 1.355,-0.816 2.41,-1.879 3.168,-3.19 l 0,13.021 5.855,0 0,-25.169 c 0,-0.612 0.102,-1.049 0.306,-1.311 0.203,-0.262 0.553,-0.408 1.049,-0.437 l 0,-4.982 C 11.739,-4.748 10.909,-4.85 10.269,-4.85 9.22,-4.85 8.361,-4.588 7.691,-4.064 7.02,-3.539 6.642,-2.855 6.555,-2.01 L 6.423,-0.568 C 5.578,-2.025 4.436,-3.124 2.994,-3.866 1.552,-4.611 0.044,-4.981 -1.529,-4.981"
             style="fill:#2e2d2d;fill-opacity:1;fill-rule:nonzero;stroke:none"
             id="path44"
             inkscape:connector-curvature="0" /></g><g
           id="g46"
           transform="translate(382.3885,407.021)"><path
             d="m 0,0 c 0,-1.02 0.154,-1.944 0.46,-2.774 0.305,-0.83 0.727,-1.552 1.267,-2.164 0.538,-0.612 1.172,-1.085 1.9,-1.419 0.728,-0.336 1.514,-0.503 2.359,-0.503 0.846,0 1.632,0.167 2.36,0.503 0.728,0.334 1.362,0.807 1.902,1.419 0.538,0.612 0.961,1.34 1.267,2.185 0.306,0.845 0.458,1.777 0.458,2.797 0,0.99 -0.152,1.907 -0.458,2.753 C 11.209,3.642 10.786,4.37 10.248,4.981 9.708,5.593 9.074,6.066 8.346,6.402 7.618,6.737 6.832,6.904 5.986,6.904 5.141,6.904 4.355,6.729 3.627,6.38 2.899,6.03 2.265,5.55 1.727,4.938 1.187,4.326 0.765,3.598 0.46,2.753 0.154,1.908 0,0.99 0,0 m 5.986,-11.842 c -1.863,0 -3.539,0.321 -5.025,0.961 -1.485,0.641 -2.745,1.509 -3.779,2.601 -1.035,1.093 -1.829,2.352 -2.382,3.779 -0.553,1.427 -0.83,2.928 -0.83,4.501 0,1.602 0.277,3.118 0.83,4.544 0.553,1.427 1.347,2.689 2.382,3.781 1.034,1.092 2.294,1.959 3.779,2.599 1.486,0.641 3.162,0.962 5.025,0.962 1.864,0 3.532,-0.321 5.005,-0.962 1.47,-0.64 2.722,-1.507 3.758,-2.599 1.033,-1.092 1.827,-2.354 2.38,-3.781 C 17.682,3.118 17.96,1.602 17.96,0 c 0,-1.573 -0.278,-3.074 -0.831,-4.501 -0.553,-1.427 -1.339,-2.686 -2.359,-3.779 -1.02,-1.092 -2.273,-1.96 -3.758,-2.601 -1.486,-0.64 -3.162,-0.961 -5.026,-0.961"
             style="fill:#2e2d2d;fill-opacity:1;fill-rule:nonzero;stroke:none"
             id="path48"
             inkscape:connector-curvature="0" /></g><g
           id="g50"
           transform="translate(405.2843,408.6815)"><path
             d="M 0,0 -2.229,-1.311 -3.714,1.835 0,4.064 l 0,14.769 5.855,0 0,-11.273 3.758,2.272 1.486,-3.146 -5.244,-3.147 0,-9.263 c 0,-0.846 0.204,-1.501 0.612,-1.967 0.409,-0.465 0.99,-0.699 1.748,-0.699 0.35,0 0.735,0.059 1.159,0.175 0.422,0.116 0.823,0.262 1.201,0.437 l 0.786,-4.457 c -0.786,-0.378 -1.704,-0.671 -2.753,-0.874 -1.048,-0.204 -1.995,-0.306 -2.84,-0.306 -1.835,0 -3.255,0.488 -4.26,1.465 C 0.503,-10.975 0,-9.585 0,-7.778 L 0,0 z"
             style="fill:#2e2d2d;fill-opacity:1;fill-rule:nonzero;stroke:none"
             id="path52"
             inkscape:connector-curvature="0" /></g><g
           id="g54"
           transform="translate(427.2202,399.4614)"><path
             d="m 0,0 c 0.99,0 1.93,0.175 2.819,0.524 0.888,0.35 1.579,0.816 2.075,1.399 0.64,0.495 0.961,1.048 0.961,1.66 l 0,2.622 C 5.156,6.467 4.398,6.678 3.583,6.839 2.768,6.999 1.981,7.079 1.224,7.079 -0.291,7.079 -1.529,6.737 -2.491,6.053 -3.452,5.367 -3.933,4.501 -3.933,3.452 c 0,-0.99 0.378,-1.813 1.136,-2.468 C -2.039,0.328 -1.108,0 0,0 m -1.66,-4.282 c -1.108,0 -2.142,0.182 -3.103,0.547 -0.961,0.363 -1.792,0.874 -2.491,1.529 -0.699,0.655 -1.244,1.419 -1.638,2.293 -0.393,0.874 -0.59,1.836 -0.59,2.884 0,1.078 0.241,2.077 0.721,2.994 0.481,0.918 1.15,1.697 2.011,2.337 0.858,0.641 1.885,1.144 3.079,1.509 1.195,0.363 2.506,0.545 3.933,0.545 1.02,0 2.018,-0.087 2.994,-0.262 C 4.231,9.919 5.097,9.672 5.855,9.351 l 0,1.311 c 0,1.514 -0.429,2.681 -1.288,3.496 -0.86,0.815 -2.135,1.223 -3.824,1.223 -1.224,0 -2.419,-0.218 -3.583,-0.655 -1.165,-0.437 -2.36,-1.077 -3.583,-1.923 l -1.792,3.714 c 2.943,1.952 6.118,2.928 9.526,2.928 3.292,0 5.848,-0.807 7.669,-2.424 1.821,-1.617 2.731,-3.956 2.731,-7.014 l 0,-7.123 c 0,-0.612 0.11,-1.049 0.328,-1.311 0.219,-0.262 0.574,-0.408 1.07,-0.437 l 0,-4.981 c -0.99,-0.204 -1.85,-0.306 -2.578,-0.306 -1.108,0 -1.959,0.247 -2.556,0.743 -0.598,0.495 -0.968,1.151 -1.115,1.966 L 6.729,-0.175 C 5.709,-1.514 4.472,-2.534 3.015,-3.234 1.558,-3.933 0,-4.282 -1.66,-4.282"
             style="fill:#2e2d2d;fill-opacity:1;fill-rule:nonzero;stroke:none"
             id="path56"
             inkscape:connector-curvature="0" /></g><g
           id="g58"
           transform="translate(479.9626,395.616)"><path
             d="m 0,0 -5.855,0 0,12.847 c 0,1.835 -0.314,3.175 -0.939,4.02 -0.627,0.845 -1.493,1.267 -2.601,1.267 -1.165,0 -2.257,-0.444 -3.277,-1.332 -1.02,-0.889 -1.748,-2.047 -2.185,-3.474 l 0,-13.328 -5.855,0 0,12.847 c 0,1.835 -0.314,3.175 -0.939,4.02 -0.627,0.845 -1.493,1.267 -2.601,1.267 -1.136,0 -2.221,-0.437 -3.255,-1.311 -1.035,-0.874 -1.77,-2.025 -2.207,-3.452 l 0,-13.371 -5.855,0 0,22.897 5.287,0 0,-4.238 c 0.845,1.485 2.002,2.629 3.475,3.431 1.47,0.8 3.152,1.201 5.046,1.201 1.923,0 3.408,-0.466 4.457,-1.399 1.049,-0.932 1.719,-2.082 2.01,-3.452 0.933,1.573 2.113,2.776 3.539,3.606 1.427,0.83 3.059,1.245 4.895,1.245 1.398,0 2.549,-0.263 3.452,-0.787 0.902,-0.524 1.601,-1.208 2.097,-2.054 0.496,-0.845 0.838,-1.806 1.028,-2.884 C -0.095,16.489 0,15.396 0,14.289 L 0,0 z"
             style="fill:#2e2d2d;fill-opacity:1;fill-rule:nonzero;stroke:none"
             id="path60"
             inkscape:connector-curvature="0" /></g><g
           id="g62"
           transform="translate(492.9843,399.4614)"><path
             d="m 0,0 c 0.99,0 1.93,0.175 2.819,0.524 0.888,0.35 1.579,0.816 2.075,1.399 0.64,0.495 0.961,1.048 0.961,1.66 l 0,2.622 C 5.156,6.467 4.398,6.678 3.583,6.839 2.768,6.999 1.981,7.079 1.224,7.079 -0.291,7.079 -1.529,6.737 -2.491,6.053 -3.452,5.367 -3.933,4.501 -3.933,3.452 c 0,-0.99 0.378,-1.813 1.136,-2.468 C -2.039,0.328 -1.107,0 0,0 m -1.66,-4.282 c -1.108,0 -2.142,0.182 -3.103,0.547 -0.961,0.363 -1.792,0.874 -2.491,1.529 -0.699,0.655 -1.244,1.419 -1.638,2.293 -0.393,0.874 -0.59,1.836 -0.59,2.884 0,1.078 0.241,2.077 0.722,2.994 0.48,0.918 1.149,1.697 2.01,2.337 0.858,0.641 1.885,1.144 3.079,1.509 1.195,0.363 2.506,0.545 3.933,0.545 1.02,0 2.018,-0.087 2.994,-0.262 C 4.231,9.919 5.098,9.672 5.855,9.351 l 0,1.311 c 0,1.514 -0.429,2.681 -1.288,3.496 -0.86,0.815 -2.135,1.223 -3.824,1.223 -1.224,0 -2.419,-0.218 -3.583,-0.655 -1.165,-0.437 -2.36,-1.077 -3.583,-1.923 l -1.792,3.714 c 2.943,1.952 6.118,2.928 9.526,2.928 3.292,0 5.848,-0.807 7.67,-2.424 1.82,-1.617 2.73,-3.956 2.73,-7.014 l 0,-7.123 c 0,-0.612 0.11,-1.049 0.328,-1.311 0.219,-0.262 0.574,-0.408 1.07,-0.437 l 0,-4.981 c -0.99,-0.204 -1.85,-0.306 -2.578,-0.306 -1.107,0 -1.959,0.247 -2.556,0.743 -0.598,0.495 -0.968,1.151 -1.115,1.966 L 6.729,-0.175 C 5.709,-1.514 4.472,-2.534 3.015,-3.234 1.558,-3.933 0,-4.282 -1.66,-4.282"
             style="fill:#2e2d2d;fill-opacity:1;fill-rule:nonzero;stroke:none"
             id="path64"
             inkscape:connector-curvature="0" /></g><g
           id="g66"
           transform="translate(508.7153,407.0647)"><path
             d="m 0,0 c 0,1.602 0.277,3.118 0.83,4.544 0.553,1.427 1.355,2.681 2.404,3.758 1.048,1.078 2.316,1.938 3.801,2.579 1.486,0.64 3.162,0.961 5.025,0.961 2.506,0 4.64,-0.54 6.403,-1.617 1.761,-1.077 3.08,-2.491 3.954,-4.238 L 16.692,4.239 C 16.197,5.084 15.541,5.732 14.726,6.184 13.911,6.634 13.007,6.86 12.017,6.86 11.171,6.86 10.385,6.693 9.657,6.359 8.929,6.023 8.295,5.557 7.757,4.96 7.218,4.362 6.796,3.642 6.49,2.797 6.184,1.951 6.03,1.02 6.03,0 c 0,-1.02 0.16,-1.951 0.481,-2.797 0.321,-0.845 0.75,-1.573 1.29,-2.184 0.538,-0.612 1.172,-1.085 1.9,-1.42 0.728,-0.336 1.501,-0.503 2.316,-0.503 1.048,0 2.017,0.262 2.906,0.786 0.888,0.525 1.507,1.165 1.857,1.923 l 5.724,-1.748 c -0.787,-1.748 -2.082,-3.175 -3.889,-4.282 -1.807,-1.108 -3.976,-1.661 -6.511,-1.661 -1.864,0 -3.539,0.321 -5.025,0.962 -1.486,0.64 -2.753,1.508 -3.802,2.6 -1.048,1.093 -1.856,2.36 -2.424,3.802 C 0.285,-3.08 0,-1.573 0,0"
             style="fill:#2e2d2d;fill-opacity:1;fill-rule:nonzero;stroke:none"
             id="path68"
             inkscape:connector-curvature="0" /></g><g
           id="g70"
           transform="translate(533.2731,399.1992)"><path
             d="m 0,0 12.76,15.207 -12.236,0 0,4.107 18.397,0 0,-3.583 -12.672,-15.207 12.89,0 0,-4.107 L 0,-3.583 0,0 z"
             style="fill:#2e2d2d;fill-opacity:1;fill-rule:nonzero;stroke:none"
             id="path72"
             inkscape:connector-curvature="0" /></g><g
           id="g74"
           transform="translate(577.93,400.1606)"><path
             d="m 0,0 c 0.874,0 1.683,0.19 2.426,0.568 0.743,0.378 1.376,0.889 1.9,1.529 0.524,0.641 0.933,1.384 1.223,2.229 0.291,0.845 0.438,1.719 0.438,2.622 0,0.961 -0.16,1.858 -0.481,2.688 -0.321,0.83 -0.764,1.55 -1.332,2.162 -0.568,0.612 -1.239,1.093 -2.01,1.442 -0.773,0.35 -1.611,0.525 -2.514,0.525 -0.553,0 -1.121,-0.095 -1.704,-0.284 -0.583,-0.19 -1.121,-0.459 -1.617,-0.809 -0.495,-0.349 -0.938,-0.758 -1.332,-1.223 -0.393,-0.466 -0.693,-0.977 -0.896,-1.53 l 0,-5.375 C -5.375,3.234 -4.573,2.149 -3.496,1.29 -2.418,0.429 -1.252,0 0,0 m 1.966,-4.981 c -1.806,0 -3.379,0.4 -4.719,1.202 -1.339,0.8 -2.388,1.885 -3.146,3.255 l 0,-13.328 -5.856,0 0,32.205 5.113,0 0,-3.933 c 0.845,1.34 1.938,2.396 3.277,3.169 1.34,0.771 2.884,1.157 4.632,1.157 1.545,0 2.972,-0.313 4.282,-0.939 1.311,-0.627 2.44,-1.472 3.388,-2.534 0.946,-1.064 1.689,-2.316 2.228,-3.758 0.538,-1.442 0.808,-2.965 0.808,-4.567 0,-1.661 -0.247,-3.219 -0.743,-4.676 C 10.734,0.815 10.043,-0.452 9.155,-1.529 8.266,-2.607 7.21,-3.452 5.987,-4.064 4.763,-4.676 3.423,-4.981 1.966,-4.981"
             style="fill:#2e2d2d;fill-opacity:1;fill-rule:nonzero;stroke:none"
             id="path76"
             inkscape:connector-curvature="0" /></g><g
           id="g78"
           transform="translate(593.8358,427.5149)"><path
             d="m 0,0 5.855,0 0,-24.558 c 0,-0.845 0.204,-1.501 0.612,-1.966 0.408,-0.466 0.99,-0.699 1.748,-0.699 0.35,0 0.735,0.058 1.159,0.175 0.422,0.116 0.822,0.262 1.201,0.436 l 0.786,-4.457 c -0.786,-0.378 -1.704,-0.67 -2.753,-0.874 -1.048,-0.203 -1.995,-0.305 -2.84,-0.305 -1.835,0 -3.255,0.488 -4.26,1.464 C 0.503,-29.809 0,-28.418 0,-26.612 L 0,0 z"
             style="fill:#2e2d2d;fill-opacity:1;fill-rule:nonzero;stroke:none"
             id="path80"
             inkscape:connector-curvature="0" /></g><g
           id="g82"
           transform="translate(562.5064,398.7622)"><path
             d="m 0,0 c 0,-1.738 -1.409,-3.146 -3.146,-3.146 -1.738,0 -3.146,1.408 -3.146,3.146 0,1.738 1.408,3.146 3.146,3.146 C -1.409,3.146 0,1.738 0,0"
             style="fill:#4cb4df;fill-opacity:1;fill-rule:nonzero;stroke:none"
             id="path84"
             inkscape:connector-curvature="0" /></g><g
           id="g86"
           transform="translate(557.3447,117.7327)"><path
             d="m 0,0 c 0,-4.333 -3.512,-7.845 -7.845,-7.845 l -47.943,0 c -4.333,0 -7.846,3.512 -7.846,7.845 l 0,34.867 c 0,4.333 3.513,7.845 7.846,7.845 l 47.943,0 C -3.512,42.712 0,39.2 0,34.867 L 0,0 z"
             style="fill:#ffffff;fill-opacity:1;fill-rule:nonzero;stroke:none"
             id="path88"
             inkscape:connector-curvature="0" /></g><g
           id="g90"
           transform="translate(545.3364,132.9845)"><path
             d="m 0,0 c 0.271,0.608 0.424,1.28 0.424,1.989 l 0,3.314 c 0,1.634 1.33,2.964 2.963,2.964 l 1.43,0 0,3.819 -1.43,0 c -3.745,0 -6.782,-3.037 -6.782,-6.783 l 0,-3.743 C -3.395,0.698 -4.093,0 -4.954,0 l -1.397,0 0,-3.819 1.397,0 c 0.861,0 1.559,-0.699 1.559,-1.56 l 0,-3.744 c 0,-3.746 3.037,-6.782 6.782,-6.782 l 1.43,0 0,3.819 -1.43,0 c -1.633,0 -2.963,1.329 -2.963,2.963 l 0,3.314 c 0,0.709 -0.153,1.381 -0.424,1.99 -0.339,0.76 -0.869,1.413 -1.525,1.909 C -0.869,-1.413 -0.339,-0.761 0,0"
             style="fill:#231f20;fill-opacity:1;fill-rule:nonzero;stroke:none"
             id="path92"
             inkscape:connector-curvature="0" /></g><path
           d="m 535.166,117.079 -3.819,0 0,35.378 3.819,0 0,-35.378 z"
           style="fill:#231f20;fill-opacity:1;fill-rule:nonzero;stroke:none"
           id="path94"
           inkscape:connector-curvature="0" /><g
           id="g96"
           transform="translate(568.2474,130.9533)"><path
             d="m 0,0 c 0,-0.835 0.126,-1.592 0.376,-2.271 0.251,-0.68 0.596,-1.271 1.038,-1.772 0.44,-0.501 0.96,-0.888 1.556,-1.162 0.596,-0.275 1.24,-0.412 1.932,-0.412 0.692,0 1.336,0.137 1.932,0.412 0.596,0.274 1.115,0.661 1.557,1.162 0.44,0.501 0.787,1.097 1.037,1.789 0.251,0.692 0.376,1.455 0.376,2.29 0,0.81 -0.125,1.562 -0.376,2.254 C 9.178,2.982 8.831,3.578 8.391,4.079 7.949,4.58 7.43,4.967 6.834,5.242 6.238,5.516 5.594,5.653 4.902,5.653 4.21,5.653 3.566,5.51 2.97,5.224 2.374,4.938 1.854,4.544 1.414,4.043 0.972,3.542 0.627,2.946 0.376,2.254 0.126,1.562 0,0.811 0,0 m 4.902,-9.696 c -1.526,0 -2.898,0.263 -4.115,0.787 -1.216,0.524 -2.248,1.235 -3.094,2.129 -0.848,0.895 -1.498,1.926 -1.951,3.095 -0.453,1.168 -0.68,2.397 -0.68,3.685 0,1.311 0.227,2.553 0.68,3.721 0.453,1.168 1.103,2.201 1.951,3.096 0.846,0.894 1.878,1.603 3.094,2.128 1.217,0.524 2.589,0.787 4.115,0.787 1.526,0 2.892,-0.263 4.097,-0.787 1.204,-0.525 2.23,-1.234 3.077,-2.128 0.847,-0.895 1.497,-1.928 1.95,-3.096 0.452,-1.168 0.679,-2.41 0.679,-3.721 0,-1.288 -0.227,-2.517 -0.679,-3.685 -0.453,-1.169 -1.097,-2.2 -1.933,-3.095 C 11.258,-7.674 10.233,-8.385 9.016,-8.909 7.8,-9.433 6.428,-9.696 4.902,-9.696"
             style="fill:#ffffff;fill-opacity:1;fill-rule:nonzero;stroke:none"
             id="path98"
             inkscape:connector-curvature="0" /></g><g
           id="g100"
           transform="translate(595.1893,125.3359)"><path
             d="m 0,0 c 0.453,0 0.918,0.078 1.395,0.233 0.478,0.154 0.918,0.375 1.324,0.661 0.406,0.287 0.77,0.621 1.092,1.002 0.322,0.382 0.566,0.8 0.733,1.253 l 0,4.472 C 4.353,8.145 4.085,8.629 3.74,9.071 3.393,9.511 2.999,9.894 2.559,10.216 c -0.442,0.322 -0.907,0.577 -1.396,0.768 -0.489,0.192 -0.972,0.287 -1.449,0.287 -0.716,0 -1.377,-0.156 -1.985,-0.466 C -2.88,10.496 -3.399,10.073 -3.828,9.536 -4.258,8.999 -4.592,8.385 -4.83,7.693 -5.068,7 -5.188,6.285 -5.188,5.546 -5.188,4.759 -5.057,4.031 -4.794,3.363 -4.532,2.696 -4.174,2.111 -3.721,1.61 -3.268,1.109 -2.725,0.716 -2.093,0.429 -1.461,0.143 -0.764,0 0,0 m -1.252,-4.079 c -1.288,0 -2.481,0.251 -3.578,0.752 -1.097,0.5 -2.04,1.193 -2.827,2.075 -0.787,0.882 -1.401,1.915 -1.842,3.095 -0.442,1.181 -0.662,2.451 -0.662,3.81 0,1.36 0.208,2.624 0.626,3.793 0.417,1.168 0.996,2.195 1.735,3.077 0.739,0.882 1.623,1.574 2.648,2.075 1.025,0.501 2.147,0.751 3.363,0.751 1.383,0 2.63,-0.334 3.74,-1.001 1.109,-0.668 1.972,-1.539 2.593,-2.612 l 0,10.662 4.794,0 0,-20.609 C 9.338,1.288 9.422,0.93 9.589,0.716 9.755,0.501 10.042,0.381 10.448,0.358 l 0,-4.079 c -0.836,-0.167 -1.516,-0.251 -2.04,-0.251 -0.859,0 -1.562,0.215 -2.111,0.645 -0.549,0.429 -0.859,0.989 -0.93,1.681 L 5.26,-0.465 C 4.567,-1.658 3.632,-2.558 2.451,-3.166 1.271,-3.775 0.036,-4.079 -1.252,-4.079"
             style="fill:#ffffff;fill-opacity:1;fill-rule:nonzero;stroke:none"
             id="path102"
             inkscape:connector-curvature="0" /></g><g
           id="g104"
           transform="translate(613.0074,130.9533)"><path
             d="m 0,0 c 0,-0.835 0.126,-1.592 0.376,-2.271 0.251,-0.68 0.596,-1.271 1.038,-1.772 0.44,-0.501 0.96,-0.888 1.556,-1.162 0.596,-0.275 1.24,-0.412 1.932,-0.412 0.692,0 1.336,0.137 1.932,0.412 0.596,0.274 1.115,0.661 1.557,1.162 0.44,0.501 0.787,1.097 1.037,1.789 0.251,0.692 0.376,1.455 0.376,2.29 0,0.81 -0.125,1.562 -0.376,2.254 C 9.178,2.982 8.831,3.578 8.391,4.079 7.949,4.58 7.43,4.967 6.834,5.242 6.238,5.516 5.594,5.653 4.902,5.653 4.21,5.653 3.566,5.51 2.97,5.224 2.374,4.938 1.854,4.544 1.414,4.043 0.972,3.542 0.627,2.946 0.376,2.254 0.126,1.562 0,0.811 0,0 m 4.902,-9.696 c -1.526,0 -2.898,0.263 -4.115,0.787 -1.216,0.524 -2.248,1.235 -3.094,2.129 -0.848,0.895 -1.498,1.926 -1.951,3.095 -0.453,1.168 -0.68,2.397 -0.68,3.685 0,1.311 0.227,2.553 0.68,3.721 0.453,1.168 1.103,2.201 1.951,3.096 0.846,0.894 1.878,1.603 3.094,2.128 1.217,0.524 2.589,0.787 4.115,0.787 1.526,0 2.892,-0.263 4.097,-0.787 1.204,-0.525 2.23,-1.234 3.077,-2.128 0.847,-0.895 1.497,-1.928 1.95,-3.096 0.452,-1.168 0.679,-2.41 0.679,-3.721 0,-1.288 -0.227,-2.517 -0.679,-3.685 -0.453,-1.169 -1.097,-2.2 -1.933,-3.095 C 11.258,-7.674 10.233,-8.385 9.016,-8.909 7.8,-9.433 6.428,-9.696 4.902,-9.696"
             style="fill:#ffffff;fill-opacity:1;fill-rule:nonzero;stroke:none"
             id="path106"
             inkscape:connector-curvature="0" /></g><g
           id="g108"
           transform="translate(631.7546,132.3129)"><path
             d="M 0,0 -1.825,-1.073 -3.041,1.503 0,3.327 l 0,12.094 4.794,0 0,-9.231 3.077,1.86 1.217,-2.576 -4.294,-2.576 0,-7.585 c 0,-0.692 0.167,-1.229 0.501,-1.61 0.335,-0.381 0.811,-0.573 1.432,-0.573 0.286,0 0.602,0.048 0.948,0.143 0.346,0.095 0.674,0.215 0.984,0.358 l 0.644,-3.649 c -0.644,-0.31 -1.396,-0.549 -2.254,-0.716 -0.859,-0.166 -1.634,-0.25 -2.326,-0.25 -1.503,0 -2.665,0.399 -3.488,1.199 C 0.412,-8.987 0,-7.848 0,-6.369 L 0,0 z"
             style="fill:#ffffff;fill-opacity:1;fill-rule:nonzero;stroke:none"
             id="path110"
             inkscape:connector-curvature="0" /></g><g
           id="g112"
           transform="translate(649.7158,124.7635)"><path
             d="m 0,0 c 0.811,0 1.58,0.143 2.308,0.429 0.727,0.287 1.293,0.668 1.699,1.145 0.525,0.406 0.787,0.859 0.787,1.36 l 0,2.147 C 4.222,5.295 3.601,5.468 2.934,5.6 2.266,5.731 1.622,5.796 1.002,5.796 c -1.24,0 -2.254,-0.28 -3.041,-0.84 C -2.827,4.395 -3.22,3.685 -3.22,2.827 -3.22,2.016 -2.91,1.342 -2.29,0.806 -1.669,0.269 -0.907,0 0,0 m -1.36,-3.506 c -0.906,0 -1.753,0.149 -2.54,0.447 -0.787,0.298 -1.467,0.716 -2.039,1.253 -0.573,0.536 -1.019,1.162 -1.342,1.878 -0.321,0.715 -0.483,1.502 -0.483,2.361 0,0.882 0.197,1.7 0.591,2.452 0.393,0.751 0.941,1.389 1.646,1.913 0.703,0.524 1.543,0.937 2.522,1.235 C -2.027,8.33 -0.954,8.48 0.215,8.48 1.05,8.48 1.867,8.408 2.666,8.265 3.464,8.122 4.174,7.92 4.794,7.657 l 0,1.073 c 0,1.24 -0.351,2.195 -1.054,2.863 -0.705,0.667 -1.749,1.001 -3.132,1.001 -1.002,0 -1.98,-0.179 -2.934,-0.536 C -3.279,11.7 -4.258,11.176 -5.26,10.483 l -1.467,3.042 c 2.41,1.597 5.01,2.397 7.8,2.397 2.696,0 4.789,-0.661 6.28,-1.985 1.491,-1.324 2.236,-3.239 2.236,-5.744 l 0,-5.832 c 0,-0.5 0.09,-0.858 0.269,-1.073 0.179,-0.215 0.47,-0.334 0.876,-0.358 l 0,-4.079 c -0.811,-0.166 -1.515,-0.25 -2.111,-0.25 -0.907,0 -1.604,0.202 -2.093,0.608 -0.489,0.406 -0.793,0.943 -0.913,1.61 L 5.51,-0.143 C 4.675,-1.24 3.662,-2.075 2.469,-2.648 1.276,-3.22 0,-3.506 -1.36,-3.506"
             style="fill:#ffffff;fill-opacity:1;fill-rule:nonzero;stroke:none"
             id="path114"
             inkscape:connector-curvature="0" /></g><g
           id="g116"
           transform="translate(692.9016,121.6149)"><path
             d="m 0,0 -4.794,0 0,10.519 c 0,1.503 -0.257,2.6 -0.769,3.292 -0.513,0.692 -1.223,1.037 -2.13,1.037 -0.953,0 -1.848,-0.364 -2.683,-1.09 -0.835,-0.728 -1.431,-1.677 -1.789,-2.845 l 0,-10.913 -4.794,0 0,10.519 c 0,1.503 -0.257,2.6 -0.769,3.292 -0.513,0.692 -1.223,1.037 -2.13,1.037 -0.93,0 -1.818,-0.357 -2.665,-1.073 -0.847,-0.716 -1.449,-1.658 -1.807,-2.827 l 0,-10.948 -4.794,0 0,18.748 4.329,0 0,-3.47 c 0.692,1.216 1.64,2.153 2.845,2.809 1.204,0.655 2.581,0.983 4.132,0.983 1.574,0 2.791,-0.381 3.649,-1.145 0.859,-0.763 1.408,-1.705 1.646,-2.826 0.764,1.288 1.73,2.273 2.898,2.952 1.169,0.68 2.505,1.019 4.008,1.019 1.145,0 2.087,-0.214 2.826,-0.644 0.739,-0.429 1.312,-0.989 1.718,-1.681 0.406,-0.692 0.686,-1.48 0.841,-2.362 C -0.078,13.501 0,12.607 0,11.7 L 0,0 z"
             style="fill:#ffffff;fill-opacity:1;fill-rule:nonzero;stroke:none"
             id="path118"
             inkscape:connector-curvature="0" /></g><g
           id="g120"
           transform="translate(703.5638,124.7635)"><path
             d="m 0,0 c 0.811,0 1.581,0.143 2.308,0.429 0.727,0.287 1.293,0.668 1.699,1.145 0.525,0.406 0.787,0.859 0.787,1.36 l 0,2.147 C 4.222,5.295 3.601,5.468 2.934,5.6 2.266,5.731 1.622,5.796 1.002,5.796 c -1.24,0 -2.254,-0.28 -3.041,-0.84 C -2.827,4.395 -3.22,3.685 -3.22,2.827 -3.22,2.016 -2.91,1.342 -2.29,0.806 -1.669,0.269 -0.907,0 0,0 m -1.36,-3.506 c -0.906,0 -1.753,0.149 -2.54,0.447 -0.787,0.298 -1.467,0.716 -2.039,1.253 -0.573,0.536 -1.019,1.162 -1.341,1.878 -0.322,0.715 -0.484,1.502 -0.484,2.361 0,0.882 0.197,1.7 0.591,2.452 0.393,0.751 0.941,1.389 1.646,1.913 0.703,0.524 1.543,0.937 2.522,1.235 C -2.027,8.33 -0.954,8.48 0.215,8.48 1.05,8.48 1.867,8.408 2.666,8.265 3.464,8.122 4.174,7.92 4.794,7.657 l 0,1.073 c 0,1.24 -0.351,2.195 -1.054,2.863 -0.705,0.667 -1.749,1.001 -3.132,1.001 -1.002,0 -1.98,-0.179 -2.934,-0.536 C -3.279,11.7 -4.258,11.176 -5.26,10.483 l -1.467,3.042 c 2.41,1.597 5.01,2.397 7.8,2.397 2.696,0 4.789,-0.661 6.28,-1.985 1.491,-1.324 2.236,-3.239 2.236,-5.744 l 0,-5.832 c 0,-0.5 0.09,-0.858 0.269,-1.073 0.179,-0.215 0.47,-0.334 0.876,-0.358 l 0,-4.079 c -0.811,-0.166 -1.515,-0.25 -2.111,-0.25 -0.907,0 -1.604,0.202 -2.093,0.608 -0.489,0.406 -0.793,0.943 -0.913,1.61 L 5.51,-0.143 C 4.675,-1.24 3.662,-2.075 2.469,-2.648 1.276,-3.22 0,-3.506 -1.36,-3.506"
             style="fill:#ffffff;fill-opacity:1;fill-rule:nonzero;stroke:none"
             id="path122"
             inkscape:connector-curvature="0" /></g><g
           id="g124"
           transform="translate(716.4444,130.9891)"><path
             d="m 0,0 c 0,1.311 0.227,2.553 0.68,3.721 0.453,1.168 1.109,2.195 1.968,3.077 0.858,0.882 1.896,1.587 3.112,2.111 1.217,0.524 2.589,0.787 4.115,0.787 2.052,0 3.799,-0.441 5.242,-1.324 1.443,-0.882 2.522,-2.039 3.238,-3.47 L 13.668,3.471 C 13.262,4.163 12.725,4.693 12.058,5.063 11.39,5.432 10.65,5.617 9.839,5.617 9.147,5.617 8.503,5.48 7.907,5.207 7.311,4.931 6.792,4.55 6.351,4.062 5.91,3.572 5.564,2.982 5.314,2.29 5.063,1.598 4.938,0.835 4.938,0 c 0,-0.835 0.13,-1.598 0.393,-2.29 0.263,-0.692 0.615,-1.288 1.056,-1.789 0.441,-0.501 0.96,-0.888 1.556,-1.162 0.596,-0.275 1.229,-0.412 1.896,-0.412 0.859,0 1.652,0.215 2.38,0.644 0.727,0.429 1.234,0.954 1.52,1.574 l 4.687,-1.431 c -0.644,-1.431 -1.705,-2.6 -3.184,-3.506 -1.479,-0.907 -3.256,-1.36 -5.331,-1.36 -1.526,0 -2.898,0.263 -4.115,0.787 C 4.58,-8.421 3.542,-7.71 2.683,-6.815 1.825,-5.921 1.163,-4.883 0.698,-3.703 0.233,-2.522 0,-1.288 0,0"
             style="fill:#ffffff;fill-opacity:1;fill-rule:nonzero;stroke:none"
             id="path126"
             inkscape:connector-curvature="0" /></g><g
           id="g128"
           transform="translate(736.5524,124.5488)"><path
             d="m 0,0 10.448,12.451 -10.019,0 0,3.363 15.063,0 0,-2.933 -10.376,-12.452 10.555,0 0,-3.363 L 0,-2.934 0,0 z"
             style="fill:#ffffff;fill-opacity:1;fill-rule:nonzero;stroke:none"
             id="path130"
             inkscape:connector-curvature="0" /></g><g
           id="g132"
           transform="translate(773.1177,125.3359)"><path
             d="M 0,0 C 0.716,0 1.378,0.155 1.986,0.465 2.595,0.775 3.113,1.193 3.542,1.717 3.971,2.242 4.306,2.85 4.544,3.542 4.782,4.234 4.902,4.95 4.902,5.689 4.902,6.476 4.771,7.21 4.508,7.89 4.245,8.57 3.883,9.16 3.418,9.66 c -0.466,0.501 -1.015,0.895 -1.646,1.181 -0.633,0.286 -1.319,0.43 -2.058,0.43 -0.453,0 -0.918,-0.078 -1.396,-0.232 C -2.159,10.883 -2.6,10.662 -3.005,10.376 -3.411,10.09 -3.774,9.755 -4.096,9.374 -4.418,8.993 -4.664,8.575 -4.83,8.122 l 0,-4.401 C -4.401,2.648 -3.745,1.759 -2.862,1.056 -1.98,0.352 -1.025,0 0,0 m 1.61,-4.079 c -1.479,0 -2.767,0.328 -3.864,0.985 -1.097,0.655 -1.956,1.543 -2.576,2.665 l 0,-10.913 -4.795,0 0,26.369 4.187,0 0,-3.22 c 0.692,1.097 1.586,1.962 2.683,2.595 1.097,0.632 2.361,0.947 3.793,0.947 1.264,0 2.433,-0.256 3.506,-0.768 C 5.617,14.067 6.541,13.375 7.318,12.506 8.092,11.634 8.701,10.609 9.142,9.428 9.583,8.248 9.804,7 9.804,5.689 9.804,4.329 9.601,3.054 9.195,1.861 8.789,0.667 8.223,-0.37 7.496,-1.252 6.768,-2.134 5.904,-2.827 4.902,-3.327 3.9,-3.828 2.803,-4.079 1.61,-4.079"
             style="fill:#ffffff;fill-opacity:1;fill-rule:nonzero;stroke:none"
             id="path134"
             inkscape:connector-curvature="0" /></g><g
           id="g136"
           transform="translate(786.1414,147.7338)"><path
             d="m 0,0 4.794,0 0,-20.108 c 0,-0.692 0.167,-1.229 0.501,-1.61 0.335,-0.381 0.811,-0.573 1.432,-0.573 0.286,0 0.602,0.049 0.948,0.144 0.346,0.095 0.674,0.214 0.984,0.357 l 0.644,-3.649 c -0.644,-0.31 -1.396,-0.549 -2.254,-0.716 -0.859,-0.166 -1.634,-0.25 -2.326,-0.25 -1.503,0 -2.665,0.4 -3.488,1.199 C 0.412,-24.408 0,-23.269 0,-21.79 L 0,0 z"
             style="fill:#ffffff;fill-opacity:1;fill-rule:nonzero;stroke:none"
             id="path138"
             inkscape:connector-curvature="0" /></g><g
           id="g140"
           transform="translate(760.4888,124.191)"><path
             d="m 0,0 c 0,-1.423 -1.153,-2.576 -2.576,-2.576 -1.423,0 -2.576,1.153 -2.576,2.576 0,1.423 1.153,2.576 2.576,2.576 C -1.153,2.576 0,1.423 0,0"
             style="fill:#ffffff;fill-opacity:1;fill-rule:nonzero;stroke:none"
             id="path142"
             inkscape:connector-curvature="0" /></g><g
           id="g144"
           transform="translate(132.3448,117.7327)"><path
             d="m 0,0 c 0,-4.333 -3.512,-7.845 -7.845,-7.845 l -47.943,0 c -4.333,0 -7.846,3.512 -7.846,7.845 l 0,34.867 c 0,4.333 3.513,7.845 7.846,7.845 l 47.943,0 C -3.512,42.712 0,39.2 0,34.867 L 0,0 z"
             style="fill:#231f20;fill-opacity:1;fill-rule:nonzero;stroke:none"
             id="path146"
             inkscape:connector-curvature="0" /></g><g
           id="g148"
           transform="translate(120.3364,132.9845)"><path
             d="m 0,0 c 0.271,0.608 0.424,1.28 0.424,1.989 l 0,3.314 c 0,1.634 1.33,2.964 2.963,2.964 l 1.43,0 0,3.819 -1.43,0 c -3.745,0 -6.782,-3.037 -6.782,-6.783 l 0,-3.743 C -3.395,0.698 -4.093,0 -4.954,0 l -1.397,0 0,-3.819 1.397,0 c 0.861,0 1.559,-0.699 1.559,-1.56 l 0,-3.744 c 0,-3.746 3.037,-6.782 6.782,-6.782 l 1.43,0 0,3.819 -1.43,0 c -1.633,0 -2.963,1.329 -2.963,2.963 l 0,3.314 c 0,0.709 -0.153,1.381 -0.424,1.99 -0.339,0.76 -0.869,1.413 -1.525,1.909 C -0.869,-1.413 -0.339,-0.761 0,0"
             style="fill:#ffffff;fill-opacity:1;fill-rule:nonzero;stroke:none"
             id="path150"
             inkscape:connector-curvature="0" /></g><path
           d="m 110.166,117.079 -3.819,0 0,35.378 3.819,0 0,-35.378 z"
           style="fill:#ffffff;fill-opacity:1;fill-rule:nonzero;stroke:none"
           id="path152"
           inkscape:connector-curvature="0" /><g
           id="g154"
           transform="translate(143.2474,130.9533)"><path
             d="m 0,0 c 0,-0.835 0.126,-1.592 0.376,-2.271 0.251,-0.68 0.596,-1.271 1.038,-1.772 0.44,-0.501 0.96,-0.888 1.556,-1.162 0.596,-0.275 1.24,-0.412 1.932,-0.412 0.692,0 1.336,0.137 1.932,0.412 0.596,0.274 1.115,0.661 1.557,1.162 0.44,0.501 0.787,1.097 1.037,1.789 0.251,0.692 0.376,1.455 0.376,2.29 0,0.81 -0.125,1.562 -0.376,2.254 C 9.178,2.982 8.831,3.578 8.391,4.079 7.949,4.58 7.43,4.967 6.834,5.242 6.238,5.516 5.594,5.653 4.902,5.653 4.21,5.653 3.566,5.51 2.97,5.224 2.374,4.938 1.854,4.544 1.414,4.043 0.972,3.542 0.627,2.946 0.376,2.254 0.126,1.562 0,0.811 0,0 m 4.902,-9.696 c -1.526,0 -2.898,0.263 -4.115,0.787 -1.216,0.524 -2.248,1.235 -3.094,2.129 -0.848,0.895 -1.498,1.926 -1.951,3.095 -0.453,1.168 -0.68,2.397 -0.68,3.685 0,1.311 0.227,2.553 0.68,3.721 0.453,1.168 1.103,2.201 1.951,3.096 0.846,0.894 1.878,1.603 3.094,2.128 1.217,0.524 2.589,0.787 4.115,0.787 1.526,0 2.892,-0.263 4.097,-0.787 1.204,-0.525 2.23,-1.234 3.077,-2.128 0.847,-0.895 1.497,-1.928 1.95,-3.096 0.452,-1.168 0.679,-2.41 0.679,-3.721 0,-1.288 -0.227,-2.517 -0.679,-3.685 -0.453,-1.169 -1.097,-2.2 -1.933,-3.095 C 11.258,-7.674 10.233,-8.385 9.016,-8.909 7.8,-9.433 6.428,-9.696 4.902,-9.696"
             style="fill:#231f20;fill-opacity:1;fill-rule:nonzero;stroke:none"
             id="path156"
             inkscape:connector-curvature="0" /></g><g
           id="g158"
           transform="translate(170.1893,125.3359)"><path
             d="m 0,0 c 0.453,0 0.918,0.078 1.395,0.233 0.478,0.154 0.918,0.375 1.324,0.661 0.406,0.287 0.77,0.621 1.092,1.002 0.322,0.382 0.566,0.8 0.733,1.253 l 0,4.472 C 4.353,8.145 4.085,8.629 3.74,9.071 3.393,9.511 2.999,9.894 2.559,10.216 c -0.442,0.322 -0.907,0.577 -1.396,0.768 -0.489,0.192 -0.972,0.287 -1.449,0.287 -0.716,0 -1.377,-0.156 -1.985,-0.466 C -2.88,10.496 -3.399,10.073 -3.828,9.536 -4.258,8.999 -4.592,8.385 -4.83,7.693 -5.068,7 -5.188,6.285 -5.188,5.546 -5.188,4.759 -5.057,4.031 -4.794,3.363 -4.532,2.696 -4.174,2.111 -3.721,1.61 -3.268,1.109 -2.725,0.716 -2.092,0.429 -1.461,0.143 -0.764,0 0,0 m -1.252,-4.079 c -1.288,0 -2.481,0.251 -3.578,0.752 -1.097,0.5 -2.04,1.193 -2.827,2.075 -0.787,0.882 -1.401,1.915 -1.842,3.095 -0.442,1.181 -0.662,2.451 -0.662,3.81 0,1.36 0.208,2.624 0.626,3.793 0.417,1.168 0.996,2.195 1.735,3.077 0.739,0.882 1.622,1.574 2.648,2.075 1.025,0.501 2.147,0.751 3.363,0.751 1.383,0 2.63,-0.334 3.74,-1.001 1.109,-0.668 1.972,-1.539 2.593,-2.612 l 0,10.662 4.794,0 0,-20.609 C 9.338,1.288 9.422,0.93 9.589,0.716 9.755,0.501 10.042,0.381 10.448,0.358 l 0,-4.079 c -0.836,-0.167 -1.515,-0.251 -2.04,-0.251 -0.859,0 -1.562,0.215 -2.111,0.645 -0.549,0.429 -0.859,0.989 -0.93,1.681 L 5.26,-0.465 C 4.567,-1.658 3.632,-2.558 2.451,-3.166 1.271,-3.775 0.036,-4.079 -1.252,-4.079"
             style="fill:#231f20;fill-opacity:1;fill-rule:nonzero;stroke:none"
             id="path160"
             inkscape:connector-curvature="0" /></g><g
           id="g162"
           transform="translate(188.0074,130.9533)"><path
             d="m 0,0 c 0,-0.835 0.126,-1.592 0.376,-2.271 0.251,-0.68 0.596,-1.271 1.038,-1.772 0.44,-0.501 0.96,-0.888 1.556,-1.162 0.596,-0.275 1.24,-0.412 1.932,-0.412 0.692,0 1.336,0.137 1.932,0.412 0.596,0.274 1.115,0.661 1.557,1.162 0.44,0.501 0.787,1.097 1.037,1.789 0.251,0.692 0.376,1.455 0.376,2.29 0,0.81 -0.125,1.562 -0.376,2.254 C 9.178,2.982 8.831,3.578 8.391,4.079 7.949,4.58 7.43,4.967 6.834,5.242 6.238,5.516 5.594,5.653 4.902,5.653 4.21,5.653 3.566,5.51 2.97,5.224 2.374,4.938 1.854,4.544 1.414,4.043 0.972,3.542 0.627,2.946 0.376,2.254 0.126,1.562 0,0.811 0,0 m 4.902,-9.696 c -1.526,0 -2.898,0.263 -4.115,0.787 -1.216,0.524 -2.248,1.235 -3.094,2.129 -0.848,0.895 -1.498,1.926 -1.951,3.095 -0.453,1.168 -0.68,2.397 -0.68,3.685 0,1.311 0.227,2.553 0.68,3.721 0.453,1.168 1.103,2.201 1.951,3.096 0.846,0.894 1.878,1.603 3.094,2.128 1.217,0.524 2.589,0.787 4.115,0.787 1.526,0 2.892,-0.263 4.097,-0.787 1.204,-0.525 2.23,-1.234 3.077,-2.128 0.847,-0.895 1.497,-1.928 1.95,-3.096 0.452,-1.168 0.679,-2.41 0.679,-3.721 0,-1.288 -0.227,-2.517 -0.679,-3.685 -0.453,-1.169 -1.097,-2.2 -1.933,-3.095 C 11.258,-7.674 10.233,-8.385 9.016,-8.909 7.8,-9.433 6.428,-9.696 4.902,-9.696"
             style="fill:#231f20;fill-opacity:1;fill-rule:nonzero;stroke:none"
             id="path164"
             inkscape:connector-curvature="0" /></g><g
           id="g166"
           transform="translate(206.7546,132.3129)"><path
             d="M 0,0 -1.825,-1.073 -3.041,1.503 0,3.327 l 0,12.094 4.794,0 0,-9.231 3.077,1.86 1.217,-2.576 -4.294,-2.576 0,-7.585 c 0,-0.692 0.167,-1.229 0.501,-1.61 0.335,-0.381 0.811,-0.573 1.432,-0.573 0.286,0 0.602,0.048 0.948,0.143 0.346,0.095 0.674,0.215 0.984,0.358 l 0.644,-3.649 c -0.644,-0.31 -1.396,-0.549 -2.254,-0.716 -0.859,-0.166 -1.634,-0.25 -2.326,-0.25 -1.503,0 -2.665,0.399 -3.488,1.199 C 0.412,-8.987 0,-7.848 0,-6.369 L 0,0 z"
             style="fill:#231f20;fill-opacity:1;fill-rule:nonzero;stroke:none"
             id="path168"
             inkscape:connector-curvature="0" /></g><g
           id="g170"
           transform="translate(224.7158,124.7635)"><path
             d="m 0,0 c 0.811,0 1.58,0.143 2.308,0.429 0.727,0.287 1.293,0.668 1.699,1.145 0.525,0.406 0.787,0.859 0.787,1.36 l 0,2.147 C 4.222,5.295 3.601,5.468 2.934,5.6 2.266,5.731 1.622,5.796 1.002,5.796 c -1.24,0 -2.254,-0.28 -3.041,-0.84 C -2.827,4.395 -3.22,3.685 -3.22,2.827 -3.22,2.016 -2.91,1.342 -2.29,0.806 -1.669,0.269 -0.907,0 0,0 m -1.36,-3.506 c -0.906,0 -1.753,0.149 -2.54,0.447 -0.787,0.298 -1.467,0.716 -2.039,1.253 -0.573,0.536 -1.019,1.162 -1.341,1.878 -0.323,0.715 -0.484,1.502 -0.484,2.361 0,0.882 0.197,1.7 0.591,2.452 0.393,0.751 0.941,1.389 1.646,1.913 0.703,0.524 1.543,0.937 2.522,1.235 C -2.027,8.33 -0.954,8.48 0.215,8.48 1.05,8.48 1.867,8.408 2.666,8.265 3.464,8.122 4.174,7.92 4.794,7.657 l 0,1.073 c 0,1.24 -0.351,2.195 -1.054,2.863 -0.705,0.667 -1.749,1.001 -3.132,1.001 -1.002,0 -1.98,-0.179 -2.934,-0.536 C -3.279,11.7 -4.258,11.176 -5.26,10.483 l -1.467,3.042 c 2.41,1.597 5.01,2.397 7.8,2.397 2.696,0 4.789,-0.661 6.28,-1.985 1.491,-1.324 2.236,-3.239 2.236,-5.744 l 0,-5.832 c 0,-0.5 0.09,-0.858 0.269,-1.073 0.179,-0.215 0.47,-0.334 0.876,-0.358 l 0,-4.079 c -0.811,-0.166 -1.515,-0.25 -2.111,-0.25 -0.907,0 -1.604,0.202 -2.093,0.608 -0.489,0.406 -0.793,0.943 -0.913,1.61 L 5.51,-0.143 C 4.675,-1.24 3.662,-2.075 2.469,-2.648 1.276,-3.22 0,-3.506 -1.36,-3.506"
             style="fill:#231f20;fill-opacity:1;fill-rule:nonzero;stroke:none"
             id="path172"
             inkscape:connector-curvature="0" /></g><g
           id="g174"
           transform="translate(267.9016,121.6149)"><path
             d="m 0,0 -4.794,0 0,10.519 c 0,1.503 -0.257,2.6 -0.769,3.292 -0.513,0.692 -1.223,1.037 -2.13,1.037 -0.953,0 -1.848,-0.364 -2.683,-1.09 -0.835,-0.728 -1.431,-1.677 -1.789,-2.845 l 0,-10.913 -4.794,0 0,10.519 c 0,1.503 -0.257,2.6 -0.769,3.292 -0.513,0.692 -1.223,1.037 -2.13,1.037 -0.93,0 -1.818,-0.357 -2.665,-1.073 -0.847,-0.716 -1.449,-1.658 -1.807,-2.827 l 0,-10.948 -4.794,0 0,18.748 4.329,0 0,-3.47 c 0.692,1.216 1.64,2.153 2.845,2.809 1.204,0.655 2.581,0.983 4.132,0.983 1.574,0 2.791,-0.381 3.649,-1.145 0.859,-0.763 1.408,-1.705 1.646,-2.826 0.764,1.288 1.73,2.273 2.898,2.952 1.169,0.68 2.505,1.019 4.008,1.019 1.145,0 2.087,-0.214 2.826,-0.644 0.739,-0.429 1.312,-0.989 1.718,-1.681 0.406,-0.692 0.686,-1.48 0.841,-2.362 C -0.078,13.501 0,12.607 0,11.7 L 0,0 z"
             style="fill:#231f20;fill-opacity:1;fill-rule:nonzero;stroke:none"
             id="path176"
             inkscape:connector-curvature="0" /></g><g
           id="g178"
           transform="translate(278.5638,124.7635)"><path
             d="m 0,0 c 0.811,0 1.58,0.143 2.308,0.429 0.727,0.287 1.293,0.668 1.699,1.145 0.525,0.406 0.787,0.859 0.787,1.36 l 0,2.147 C 4.222,5.295 3.601,5.468 2.934,5.6 2.266,5.731 1.622,5.796 1.002,5.796 c -1.24,0 -2.254,-0.28 -3.041,-0.84 C -2.827,4.395 -3.22,3.685 -3.22,2.827 -3.22,2.016 -2.91,1.342 -2.29,0.806 -1.669,0.269 -0.907,0 0,0 m -1.36,-3.506 c -0.906,0 -1.753,0.149 -2.54,0.447 -0.787,0.298 -1.467,0.716 -2.039,1.253 -0.573,0.536 -1.019,1.162 -1.341,1.878 -0.323,0.715 -0.484,1.502 -0.484,2.361 0,0.882 0.197,1.7 0.591,2.452 0.393,0.751 0.941,1.389 1.646,1.913 0.703,0.524 1.543,0.937 2.522,1.235 C -2.027,8.33 -0.954,8.48 0.215,8.48 1.05,8.48 1.867,8.408 2.666,8.265 3.464,8.122 4.174,7.92 4.794,7.657 l 0,1.073 c 0,1.24 -0.351,2.195 -1.054,2.863 -0.705,0.667 -1.749,1.001 -3.132,1.001 -1.002,0 -1.98,-0.179 -2.934,-0.536 C -3.279,11.7 -4.258,11.176 -5.26,10.483 l -1.467,3.042 c 2.41,1.597 5.01,2.397 7.8,2.397 2.696,0 4.789,-0.661 6.28,-1.985 1.491,-1.324 2.236,-3.239 2.236,-5.744 l 0,-5.832 c 0,-0.5 0.09,-0.858 0.269,-1.073 0.179,-0.215 0.47,-0.334 0.876,-0.358 l 0,-4.079 c -0.811,-0.166 -1.515,-0.25 -2.111,-0.25 -0.907,0 -1.604,0.202 -2.093,0.608 -0.489,0.406 -0.793,0.943 -0.913,1.61 L 5.51,-0.143 C 4.675,-1.24 3.662,-2.075 2.469,-2.648 1.276,-3.22 0,-3.506 -1.36,-3.506"
             style="fill:#231f20;fill-opacity:1;fill-rule:nonzero;stroke:none"
             id="path180"
             inkscape:connector-curvature="0" /></g><g
           id="g182"
           transform="translate(291.4444,130.9891)"><path
             d="m 0,0 c 0,1.311 0.227,2.553 0.68,3.721 0.453,1.168 1.109,2.195 1.968,3.077 0.858,0.882 1.896,1.587 3.112,2.111 1.217,0.524 2.589,0.787 4.115,0.787 2.052,0 3.799,-0.441 5.242,-1.324 1.443,-0.882 2.522,-2.039 3.238,-3.47 L 13.668,3.471 C 13.262,4.163 12.725,4.693 12.058,5.063 11.39,5.432 10.65,5.617 9.839,5.617 9.147,5.617 8.503,5.48 7.907,5.207 7.311,4.931 6.792,4.55 6.351,4.062 5.91,3.572 5.564,2.982 5.314,2.29 5.063,1.598 4.938,0.835 4.938,0 c 0,-0.835 0.13,-1.598 0.393,-2.29 0.263,-0.692 0.615,-1.288 1.056,-1.789 0.441,-0.501 0.96,-0.888 1.556,-1.162 0.596,-0.275 1.229,-0.412 1.896,-0.412 0.859,0 1.652,0.215 2.38,0.644 0.727,0.429 1.234,0.954 1.52,1.574 l 4.687,-1.431 c -0.644,-1.431 -1.705,-2.6 -3.184,-3.506 -1.479,-0.907 -3.256,-1.36 -5.331,-1.36 -1.526,0 -2.898,0.263 -4.115,0.787 C 4.58,-8.421 3.542,-7.71 2.683,-6.815 1.825,-5.921 1.163,-4.883 0.698,-3.703 0.233,-2.522 0,-1.288 0,0"
             style="fill:#231f20;fill-opacity:1;fill-rule:nonzero;stroke:none"
             id="path184"
             inkscape:connector-curvature="0" /></g><g
           id="g186"
           transform="translate(311.5524,124.5488)"><path
             d="m 0,0 10.448,12.451 -10.019,0 0,3.363 15.063,0 0,-2.933 -10.376,-12.452 10.555,0 0,-3.363 L 0,-2.934 0,0 z"
             style="fill:#231f20;fill-opacity:1;fill-rule:nonzero;stroke:none"
             id="path188"
             inkscape:connector-curvature="0" /></g><g
           id="g190"
           transform="translate(348.1177,125.3359)"><path
             d="M 0,0 C 0.716,0 1.378,0.155 1.986,0.465 2.595,0.775 3.113,1.193 3.542,1.717 3.971,2.242 4.306,2.85 4.544,3.542 4.782,4.234 4.902,4.95 4.902,5.689 4.902,6.476 4.771,7.21 4.508,7.89 4.245,8.57 3.883,9.16 3.418,9.66 c -0.466,0.501 -1.015,0.895 -1.646,1.181 -0.633,0.286 -1.319,0.43 -2.058,0.43 -0.453,0 -0.918,-0.078 -1.396,-0.232 C -2.159,10.883 -2.6,10.662 -3.005,10.376 -3.411,10.09 -3.774,9.755 -4.096,9.374 -4.418,8.993 -4.664,8.575 -4.83,8.122 l 0,-4.401 C -4.401,2.648 -3.745,1.759 -2.862,1.056 -1.98,0.352 -1.025,0 0,0 m 1.61,-4.079 c -1.479,0 -2.767,0.328 -3.864,0.985 -1.097,0.655 -1.956,1.543 -2.576,2.665 l 0,-10.913 -4.795,0 0,26.369 4.187,0 0,-3.22 c 0.692,1.097 1.586,1.962 2.683,2.595 1.097,0.632 2.361,0.947 3.793,0.947 1.264,0 2.433,-0.256 3.506,-0.768 C 5.617,14.067 6.541,13.375 7.318,12.506 8.092,11.634 8.701,10.609 9.142,9.428 9.583,8.248 9.804,7 9.804,5.689 9.804,4.329 9.601,3.054 9.195,1.861 8.789,0.667 8.223,-0.37 7.496,-1.252 6.768,-2.134 5.904,-2.827 4.902,-3.327 3.9,-3.828 2.803,-4.079 1.61,-4.079"
             style="fill:#231f20;fill-opacity:1;fill-rule:nonzero;stroke:none"
             id="path192"
             inkscape:connector-curvature="0" /></g><g
           id="g194"
           transform="translate(361.1414,147.7338)"><path
             d="m 0,0 4.794,0 0,-20.108 c 0,-0.692 0.167,-1.229 0.501,-1.61 0.335,-0.381 0.811,-0.573 1.432,-0.573 0.286,0 0.602,0.049 0.948,0.144 0.346,0.095 0.674,0.214 0.984,0.357 l 0.644,-3.649 c -0.644,-0.31 -1.396,-0.549 -2.254,-0.716 -0.859,-0.166 -1.634,-0.25 -2.326,-0.25 -1.503,0 -2.665,0.4 -3.488,1.199 C 0.412,-24.408 0,-23.269 0,-21.79 L 0,0 z"
             style="fill:#231f20;fill-opacity:1;fill-rule:nonzero;stroke:none"
             id="path196"
             inkscape:connector-curvature="0" /></g><g
           id="g198"
           transform="translate(335.4888,124.191)"><path
             d="m 0,0 c 0,-1.423 -1.153,-2.576 -2.576,-2.576 -1.423,0 -2.576,1.153 -2.576,2.576 0,1.423 1.153,2.576 2.576,2.576 C -1.153,2.576 0,1.423 0,0"
             style="fill:#231f20;fill-opacity:1;fill-rule:nonzero;stroke:none"
             id="path200"
             inkscape:connector-curvature="0" /></g><g
           id="g202"
           transform="matrix(0.43036013,0,0,0.43036013,270.13864,657.91469)"><path
             d="m 0,0 c 0,-5.292 -4.29,-9.581 -9.581,-9.581 l -58.553,0 c -5.292,0 -9.581,4.289 -9.581,9.581 l 0,42.583 c 0,5.292 4.289,9.581 9.581,9.581 l 58.553,0 C -4.29,52.164 0,47.875 0,42.583 L 0,0 z"
             style="fill:#4cb4df;fill-opacity:1;fill-rule:nonzero;stroke:none"
             id="path204"
             inkscape:connector-curvature="0" /></g><g
           id="g206"
           transform="matrix(0.43036013,0,0,0.43036013,263.8271,665.93097)"><path
             d="m 0,0 c 0.331,0.743 0.518,1.564 0.518,2.429 l 0,4.048 c 0,1.996 1.624,3.619 3.619,3.619 l 1.745,0 0,4.664 -1.745,0 c -4.575,0 -8.283,-3.708 -8.283,-8.283 l 0,-4.572 C -4.146,0.853 -4.999,0 -6.051,0 l -1.705,0 0,-4.664 1.705,0 c 1.052,0 1.905,-0.853 1.905,-1.905 l 0,-4.573 c 0,-4.574 3.708,-8.283 8.283,-8.283 l 1.745,0 0,4.665 -1.745,0 c -1.995,0 -3.619,1.623 -3.619,3.618 l 0,4.048 c 0,0.866 -0.187,1.687 -0.518,2.43 -0.413,0.929 -1.062,1.725 -1.862,2.332 0.8,0.607 1.449,1.403 1.862,2.332"
             style="fill:#ffffff;fill-opacity:1;fill-rule:nonzero;stroke:none"
             id="path208"
             inkscape:connector-curvature="0" /></g><path
           d="m 258.48182,657.57127 -2.0072,0 0,18.59457 2.0072,0 0,-18.59457 z"
           style="fill:#ffffff;fill-opacity:1;fill-rule:nonzero;stroke:none"
           id="path210"
           inkscape:connector-curvature="0" /><g
           id="g212"
           transform="matrix(0.43036013,0,0,0.43036013,275.86901,664.86342)"><path
             d="m 0,0 c 0,-1.02 0.154,-1.944 0.46,-2.774 0.305,-0.83 0.727,-1.552 1.267,-2.164 0.538,-0.611 1.172,-1.085 1.9,-1.419 0.728,-0.336 1.514,-0.503 2.36,-0.503 0.845,0 1.631,0.167 2.359,0.503 0.728,0.334 1.362,0.808 1.902,1.419 0.538,0.612 0.961,1.34 1.267,2.185 0.306,0.845 0.458,1.777 0.458,2.797 0,0.99 -0.152,1.907 -0.458,2.753 C 11.209,3.642 10.786,4.37 10.248,4.981 9.708,5.593 9.074,6.066 8.346,6.402 7.618,6.737 6.832,6.904 5.987,6.904 5.141,6.904 4.355,6.729 3.627,6.38 2.899,6.03 2.265,5.55 1.727,4.938 1.187,4.326 0.765,3.598 0.46,2.753 0.154,1.908 0,0.99 0,0 m 5.987,-11.842 c -1.864,0 -3.54,0.321 -5.026,0.961 -1.485,0.641 -2.745,1.509 -3.779,2.601 -1.035,1.093 -1.829,2.352 -2.382,3.779 -0.553,1.427 -0.83,2.928 -0.83,4.501 0,1.602 0.277,3.118 0.83,4.544 0.553,1.427 1.347,2.689 2.382,3.781 1.034,1.092 2.294,1.959 3.779,2.599 1.486,0.641 3.162,0.962 5.026,0.962 1.863,0 3.531,-0.321 5.004,-0.962 1.47,-0.64 2.722,-1.507 3.758,-2.599 1.033,-1.092 1.827,-2.354 2.38,-3.781 C 17.682,3.118 17.96,1.602 17.96,0 c 0,-1.573 -0.278,-3.074 -0.831,-4.501 -0.553,-1.427 -1.339,-2.686 -2.359,-3.779 -1.02,-1.092 -2.273,-1.96 -3.758,-2.601 -1.486,-0.64 -3.162,-0.961 -5.025,-0.961"
             style="fill:#ffffff;fill-opacity:1;fill-rule:nonzero;stroke:none"
             id="path214"
             inkscape:connector-curvature="0" /></g><g
           id="g216"
           transform="matrix(0.43036013,0,0,0.43036013,290.02954,661.91098)"><path
             d="m 0,0 c 0.553,0 1.121,0.095 1.704,0.285 0.583,0.188 1.121,0.458 1.617,0.807 0.496,0.35 0.94,0.758 1.334,1.224 0.393,0.465 0.691,0.976 0.895,1.529 l 0,5.462 c -0.234,0.641 -0.561,1.232 -0.983,1.771 -0.423,0.538 -0.904,1.005 -1.442,1.398 -0.539,0.394 -1.107,0.705 -1.704,0.939 -0.598,0.234 -1.187,0.35 -1.771,0.35 -0.874,0 -1.681,-0.19 -2.424,-0.569 -0.743,-0.378 -1.377,-0.895 -1.902,-1.55 C -5.2,10.991 -5.608,10.24 -5.899,9.395 -6.19,8.55 -6.336,7.676 -6.336,6.773 c 0,-0.961 0.16,-1.85 0.481,-2.666 C -5.534,3.292 -5.097,2.578 -4.544,1.966 -3.991,1.355 -3.328,0.874 -2.556,0.524 -1.784,0.175 -0.933,0 0,0 m -1.529,-4.982 c -1.573,0 -3.031,0.306 -4.37,0.918 -1.34,0.612 -2.491,1.457 -3.452,2.535 -0.962,1.077 -1.712,2.338 -2.25,3.78 -0.539,1.442 -0.809,2.993 -0.809,4.653 0,1.661 0.255,3.205 0.765,4.632 0.51,1.427 1.216,2.681 2.119,3.758 0.903,1.077 1.981,1.923 3.234,2.534 1.252,0.612 2.621,0.918 4.107,0.918 1.689,0 3.213,-0.408 4.567,-1.223 1.355,-0.816 2.41,-1.879 3.168,-3.19 l 0,13.021 5.855,0 0,-25.169 c 0,-0.612 0.102,-1.049 0.306,-1.311 0.203,-0.262 0.553,-0.408 1.049,-0.437 l 0,-4.982 C 11.739,-4.748 10.909,-4.85 10.269,-4.85 9.22,-4.85 8.361,-4.588 7.691,-4.064 7.02,-3.539 6.642,-2.855 6.555,-2.01 L 6.423,-0.568 C 5.578,-2.025 4.436,-3.124 2.994,-3.866 1.552,-4.611 0.044,-4.982 -1.529,-4.982"
             style="fill:#ffffff;fill-opacity:1;fill-rule:nonzero;stroke:none"
             id="path218"
             inkscape:connector-curvature="0" /></g><g
           id="g220"
           transform="matrix(0.43036013,0,0,0.43036013,299.39465,664.86342)"><path
             d="m 0,0 c 0,-1.02 0.154,-1.944 0.46,-2.774 0.305,-0.83 0.727,-1.552 1.267,-2.164 0.538,-0.611 1.172,-1.085 1.9,-1.419 0.728,-0.336 1.514,-0.503 2.359,-0.503 0.846,0 1.632,0.167 2.36,0.503 0.728,0.334 1.362,0.808 1.902,1.419 0.538,0.612 0.961,1.34 1.267,2.185 0.306,0.845 0.458,1.777 0.458,2.797 0,0.99 -0.152,1.907 -0.458,2.753 C 11.209,3.642 10.786,4.37 10.248,4.981 9.708,5.593 9.074,6.066 8.346,6.402 7.618,6.737 6.832,6.904 5.986,6.904 5.141,6.904 4.355,6.729 3.627,6.38 2.899,6.03 2.265,5.55 1.727,4.938 1.187,4.326 0.765,3.598 0.46,2.753 0.154,1.908 0,0.99 0,0 m 5.986,-11.842 c -1.863,0 -3.539,0.321 -5.025,0.961 -1.485,0.641 -2.745,1.509 -3.779,2.601 -1.035,1.093 -1.829,2.352 -2.382,3.779 -0.553,1.427 -0.83,2.928 -0.83,4.501 0,1.602 0.277,3.118 0.83,4.544 0.553,1.427 1.347,2.689 2.382,3.781 1.034,1.092 2.294,1.959 3.779,2.599 1.486,0.641 3.162,0.962 5.025,0.962 1.864,0 3.532,-0.321 5.005,-0.962 1.47,-0.64 2.722,-1.507 3.758,-2.599 1.033,-1.092 1.827,-2.354 2.38,-3.781 C 17.682,3.118 17.96,1.602 17.96,0 c 0,-1.573 -0.278,-3.074 -0.831,-4.501 -0.553,-1.427 -1.339,-2.686 -2.359,-3.779 -1.02,-1.092 -2.273,-1.96 -3.758,-2.601 -1.486,-0.64 -3.162,-0.961 -5.026,-0.961"
             style="fill:#ffffff;fill-opacity:1;fill-rule:nonzero;stroke:none"
             id="path222"
             inkscape:connector-curvature="0" /></g><g
           id="g224"
           transform="matrix(0.43036013,0,0,0.43036013,309.24809,665.57799)"><path
             d="M 0,0 -2.229,-1.311 -3.714,1.835 0,4.064 l 0,14.769 5.855,0 0,-11.273 3.758,2.272 1.486,-3.146 -5.244,-3.147 0,-9.263 c 0,-0.846 0.204,-1.501 0.612,-1.967 0.409,-0.465 0.99,-0.699 1.748,-0.699 0.35,0 0.735,0.059 1.159,0.175 0.422,0.116 0.823,0.262 1.201,0.437 l 0.786,-4.457 c -0.786,-0.378 -1.704,-0.671 -2.753,-0.874 -1.048,-0.204 -1.995,-0.306 -2.84,-0.306 -1.835,0 -3.255,0.488 -4.26,1.465 C 0.503,-10.975 0,-9.585 0,-7.778 L 0,0 z"
             style="fill:#ffffff;fill-opacity:1;fill-rule:nonzero;stroke:none"
             id="path226"
             inkscape:connector-curvature="0" /></g><g
           id="g228"
           transform="matrix(0.43036013,0,0,0.43036013,318.68842,661.61007)"><path
             d="m 0,0 c 0.99,0 1.93,0.175 2.819,0.524 0.888,0.35 1.579,0.816 2.075,1.399 0.64,0.495 0.961,1.048 0.961,1.66 l 0,2.622 C 5.156,6.467 4.398,6.678 3.583,6.839 2.768,6.999 1.981,7.079 1.224,7.079 -0.291,7.079 -1.529,6.737 -2.491,6.053 -3.452,5.367 -3.933,4.501 -3.933,3.452 c 0,-0.99 0.378,-1.813 1.136,-2.468 C -2.039,0.328 -1.108,0 0,0 m -1.66,-4.282 c -1.108,0 -2.142,0.182 -3.103,0.547 -0.961,0.363 -1.792,0.874 -2.491,1.529 -0.699,0.655 -1.244,1.419 -1.638,2.293 -0.393,0.874 -0.59,1.836 -0.59,2.884 0,1.078 0.241,2.077 0.721,2.994 0.481,0.918 1.15,1.697 2.011,2.337 0.858,0.641 1.885,1.144 3.079,1.509 1.195,0.363 2.506,0.545 3.933,0.545 1.02,0 2.018,-0.087 2.994,-0.262 C 4.231,9.919 5.097,9.672 5.855,9.351 l 0,1.311 c 0,1.514 -0.429,2.681 -1.288,3.496 -0.86,0.815 -2.135,1.223 -3.824,1.223 -1.224,0 -2.419,-0.218 -3.583,-0.655 -1.165,-0.437 -2.36,-1.077 -3.583,-1.923 l -1.792,3.714 c 2.943,1.952 6.118,2.928 9.526,2.928 3.292,0 5.848,-0.807 7.669,-2.424 1.821,-1.617 2.731,-3.956 2.731,-7.014 l 0,-7.123 c 0,-0.612 0.11,-1.049 0.328,-1.311 0.219,-0.262 0.574,-0.408 1.07,-0.437 l 0,-4.981 c -0.99,-0.204 -1.85,-0.306 -2.578,-0.306 -1.108,0 -1.959,0.247 -2.556,0.743 -0.598,0.495 -0.968,1.151 -1.115,1.966 L 6.729,-0.175 C 5.709,-1.514 4.472,-2.534 3.015,-3.234 1.558,-3.933 0,-4.282 -1.66,-4.282"
             style="fill:#ffffff;fill-opacity:1;fill-rule:nonzero;stroke:none"
             id="path230"
             inkscape:connector-curvature="0" /></g><g
           id="g232"
           transform="matrix(0.43036013,0,0,0.43036013,341.38665,659.95516)"><path
             d="m 0,0 -5.855,0 0,12.847 c 0,1.835 -0.314,3.175 -0.939,4.02 -0.627,0.845 -1.493,1.267 -2.601,1.267 -1.165,0 -2.257,-0.444 -3.277,-1.332 -1.02,-0.889 -1.748,-2.047 -2.185,-3.474 l 0,-13.328 -5.855,0 0,12.847 c 0,1.835 -0.314,3.175 -0.939,4.02 -0.627,0.845 -1.493,1.267 -2.601,1.267 -1.136,0 -2.221,-0.437 -3.255,-1.311 -1.035,-0.874 -1.77,-2.025 -2.207,-3.452 l 0,-13.371 -5.855,0 0,22.897 5.287,0 0,-4.238 c 0.845,1.485 2.002,2.629 3.475,3.431 1.47,0.8 3.152,1.201 5.046,1.201 1.923,0 3.408,-0.466 4.457,-1.399 1.049,-0.932 1.719,-2.082 2.01,-3.452 0.933,1.573 2.113,2.776 3.539,3.606 1.427,0.83 3.059,1.245 4.895,1.245 1.398,0 2.549,-0.263 3.452,-0.787 0.902,-0.524 1.601,-1.208 2.097,-2.054 0.496,-0.845 0.838,-1.806 1.028,-2.884 C -0.095,16.489 0,15.396 0,14.289 L 0,0 z"
             style="fill:#ffffff;fill-opacity:1;fill-rule:nonzero;stroke:none"
             id="path234"
             inkscape:connector-curvature="0" /></g><g
           id="g236"
           transform="matrix(0.43036013,0,0,0.43036013,346.99067,661.61007)"><path
             d="m 0,0 c 0.99,0 1.93,0.175 2.819,0.524 0.888,0.35 1.579,0.816 2.075,1.399 0.64,0.495 0.961,1.048 0.961,1.66 l 0,2.622 C 5.156,6.467 4.398,6.678 3.583,6.839 2.768,6.999 1.981,7.079 1.224,7.079 -0.291,7.079 -1.529,6.737 -2.491,6.053 -3.452,5.367 -3.933,4.501 -3.933,3.452 c 0,-0.99 0.378,-1.813 1.136,-2.468 C -2.039,0.328 -1.107,0 0,0 m -1.66,-4.282 c -1.108,0 -2.142,0.182 -3.103,0.547 -0.961,0.363 -1.792,0.874 -2.491,1.529 -0.699,0.655 -1.244,1.419 -1.638,2.293 -0.393,0.874 -0.59,1.836 -0.59,2.884 0,1.078 0.241,2.077 0.722,2.994 0.48,0.918 1.149,1.697 2.01,2.337 0.858,0.641 1.885,1.144 3.079,1.509 1.195,0.363 2.506,0.545 3.933,0.545 1.02,0 2.018,-0.087 2.994,-0.262 C 4.231,9.919 5.098,9.672 5.855,9.351 l 0,1.311 c 0,1.514 -0.429,2.681 -1.288,3.496 -0.86,0.815 -2.135,1.223 -3.824,1.223 -1.224,0 -2.419,-0.218 -3.583,-0.655 -1.165,-0.437 -2.36,-1.077 -3.583,-1.923 l -1.792,3.714 c 2.943,1.952 6.118,2.928 9.526,2.928 3.292,0 5.848,-0.807 7.67,-2.424 1.82,-1.617 2.73,-3.956 2.73,-7.014 l 0,-7.123 c 0,-0.612 0.11,-1.049 0.328,-1.311 0.219,-0.262 0.574,-0.408 1.07,-0.437 l 0,-4.981 c -0.99,-0.204 -1.85,-0.306 -2.578,-0.306 -1.107,0 -1.959,0.247 -2.556,0.743 -0.598,0.495 -0.968,1.151 -1.115,1.966 L 6.729,-0.175 C 5.709,-1.514 4.472,-2.534 3.015,-3.234 1.558,-3.933 0,-4.282 -1.66,-4.282"
             style="fill:#ffffff;fill-opacity:1;fill-rule:nonzero;stroke:none"
             id="path238"
             inkscape:connector-curvature="0" /></g><g
           id="g240"
           transform="matrix(0.43036013,0,0,0.43036013,353.76067,664.88222)"><path
             d="m 0,0 c 0,1.602 0.277,3.118 0.83,4.544 0.553,1.427 1.355,2.681 2.404,3.758 1.048,1.078 2.316,1.938 3.801,2.579 1.486,0.64 3.162,0.961 5.025,0.961 2.506,0 4.64,-0.54 6.403,-1.617 1.761,-1.077 3.08,-2.491 3.954,-4.238 L 16.692,4.239 C 16.197,5.084 15.541,5.732 14.726,6.184 13.911,6.634 13.007,6.86 12.017,6.86 11.171,6.86 10.385,6.693 9.657,6.359 8.929,6.023 8.295,5.557 7.757,4.96 7.218,4.362 6.796,3.642 6.49,2.797 6.184,1.951 6.03,1.02 6.03,0 c 0,-1.02 0.16,-1.951 0.481,-2.797 0.321,-0.845 0.75,-1.573 1.29,-2.184 0.538,-0.612 1.172,-1.085 1.9,-1.42 0.728,-0.336 1.501,-0.503 2.316,-0.503 1.048,0 2.017,0.262 2.906,0.786 0.888,0.525 1.507,1.165 1.857,1.923 l 5.724,-1.748 c -0.787,-1.748 -2.082,-3.175 -3.889,-4.282 -1.807,-1.108 -3.976,-1.661 -6.511,-1.661 -1.864,0 -3.539,0.321 -5.025,0.962 -1.486,0.64 -2.753,1.508 -3.802,2.6 -1.048,1.093 -1.856,2.36 -2.424,3.802 C 0.285,-3.08 0,-1.573 0,0"
             style="fill:#ffffff;fill-opacity:1;fill-rule:nonzero;stroke:none"
             id="path242"
             inkscape:connector-curvature="0" /></g><g
           id="g244"
           transform="matrix(0.43036013,0,0,0.43036013,364.32936,661.49723)"><path
             d="m 0,0 12.76,15.207 -12.236,0 0,4.107 18.397,0 0,-3.583 -12.672,-15.207 12.89,0 0,-4.107 L 0,-3.583 0,0 z"
             style="fill:#ffffff;fill-opacity:1;fill-rule:nonzero;stroke:none"
             id="path246"
             inkscape:connector-curvature="0" /></g><g
           id="g248"
           transform="matrix(0.43036013,0,0,0.43036013,383.54791,661.91098)"><path
             d="m 0,0 c 0.874,0 1.683,0.19 2.426,0.568 0.743,0.378 1.376,0.889 1.9,1.529 0.524,0.641 0.933,1.384 1.223,2.229 0.291,0.845 0.438,1.719 0.438,2.622 0,0.961 -0.16,1.858 -0.481,2.688 -0.321,0.83 -0.764,1.55 -1.332,2.162 -0.568,0.612 -1.239,1.093 -2.01,1.442 -0.773,0.35 -1.611,0.525 -2.514,0.525 -0.553,0 -1.121,-0.095 -1.704,-0.284 -0.583,-0.19 -1.121,-0.459 -1.617,-0.809 -0.495,-0.349 -0.938,-0.758 -1.332,-1.223 -0.393,-0.466 -0.693,-0.977 -0.896,-1.53 l 0,-5.375 C -5.375,3.234 -4.573,2.149 -3.496,1.29 -2.418,0.429 -1.252,0 0,0 m 1.966,-4.982 c -1.806,0 -3.379,0.401 -4.719,1.203 -1.339,0.8 -2.388,1.885 -3.146,3.255 l 0,-13.328 -5.856,0 0,32.205 5.113,0 0,-3.933 c 0.845,1.34 1.938,2.396 3.277,3.169 1.34,0.771 2.884,1.157 4.632,1.157 1.545,0 2.972,-0.313 4.282,-0.939 1.311,-0.627 2.44,-1.472 3.388,-2.534 0.946,-1.064 1.689,-2.316 2.228,-3.758 0.538,-1.442 0.808,-2.965 0.808,-4.567 0,-1.661 -0.247,-3.219 -0.743,-4.676 C 10.734,0.815 10.043,-0.452 9.155,-1.529 8.266,-2.607 7.21,-3.452 5.987,-4.064 4.763,-4.676 3.423,-4.982 1.966,-4.982"
             style="fill:#ffffff;fill-opacity:1;fill-rule:nonzero;stroke:none"
             id="path250"
             inkscape:connector-curvature="0" /></g><g
           id="g252"
           transform="matrix(0.43036013,0,0,0.43036013,390.39314,673.68318)"><path
             d="m 0,0 5.855,0 0,-24.558 c 0,-0.845 0.204,-1.501 0.612,-1.966 0.408,-0.466 0.99,-0.699 1.748,-0.699 0.35,0 0.735,0.058 1.159,0.174 0.422,0.117 0.822,0.263 1.201,0.437 l 0.786,-4.457 c -0.786,-0.378 -1.704,-0.67 -2.753,-0.874 -1.048,-0.203 -1.995,-0.305 -2.84,-0.305 -1.835,0 -3.255,0.488 -4.26,1.464 C 0.503,-29.809 0,-28.418 0,-26.612 L 0,0 z"
             style="fill:#ffffff;fill-opacity:1;fill-rule:nonzero;stroke:none"
             id="path254"
             inkscape:connector-curvature="0" /></g><g
           id="g256"
           transform="matrix(0.43036013,0,0,0.43036013,376.91021,661.30916)"><path
             d="m 0,0 c 0,-1.738 -1.409,-3.146 -3.146,-3.146 -1.738,0 -3.146,1.408 -3.146,3.146 0,1.738 1.408,3.146 3.146,3.146 C -1.409,3.146 0,1.738 0,0"
             style="fill:#4cb4df;fill-opacity:1;fill-rule:nonzero;stroke:none"
             id="path258"
             inkscape:connector-curvature="0" /></g></g></g></g></svg>